<svg xmlns="http://www.w3.org/2000/svg" xmlns:xlink="http://www.w3.org/1999/xlink" height="100%" stroke-miterlimit="10" viewBox="1.694 1.859 448.821 448.784" width="100%" fill-rule="nonzero" stroke-linecap="round" stroke-linejoin="round" xmlns:v="https://vecta.io/nano"><style><![CDATA[.B{fill-rule:evenodd}.C{fill:#054fa3}]]></style><clipPath clip-rule="nonzero" id="A"><path d="M4.588 447.828H447.67V4.767H4.588v443.061z"/></clipPath><g clip-path="url(#A)" class="B C"><path d="M4.588 226.615C4.412 104.235 103.37 4.922 225.711 4.767c122.37-.247 221.754 98.787 221.959 221.154.119 122.289-98.849 221.62-221.157 221.907-122.39.092-221.652-98.922-221.925-221.213"/></g><g class="B"><use xlink:href="#C" fill="#edbe06"/><path d="M63.674 228.525c-.123-90.584 71.593-162.62 162.118-162.819 90.463-.133 159.78 71.379 159.974 161.963.099 90.599-69.113 160.964-159.642 161.099-90.584.165-162.226-69.637-162.45-160.243" fill="#fff"/><g fill="#8ad4df"><path d="M243.517 385.478c-8.191-1.672-9.596-11.09-26.989-10.693-10.181.771-13.911 6.405-19.713 8.991 10.809 2.221 10.398 1.832 22.744 2.889 14.96.308 23.958-1.187 23.958-1.187"/><path d="M243.517 385.478c-8.191-1.672-9.596-11.09-26.989-10.693-10.181.771-14.898 7.139-20.71 9.528 10.792 2.316 11.395 1.295 23.741 2.352 14.96.308 23.958-1.187 23.958-1.187"/><use xlink:href="#D"/><use xlink:href="#D"/><use xlink:href="#E"/><use xlink:href="#E"/><use xlink:href="#F"/><use xlink:href="#F"/><use xlink:href="#G"/><use xlink:href="#G"/><use xlink:href="#H"/><use xlink:href="#H"/><use xlink:href="#I"/><use xlink:href="#I"/><use xlink:href="#J"/><use xlink:href="#J"/></g><path d="M300.655 202.862c-6.116-3.357-11.646-5.96-17.173-2.134-3.87 2.643-5.251 5.913-5.726 10.551-.323 4.513.55 7.606 3.262 11.07l-.389.764c-6.947 6.496-16.334 9.558-27.654 8.724-6.731-.459-9.865-4.465-16.702-5.092-7.725-.768-12.066-.12-19.709 2.636-9.677 3.5-15.379 7.616-22.803 16.284-7.109 8.412-9.992 21.446-7.045 35.101 2.139 9.83 5.172 15.52 12.297 22.57 8.1 7.905 14.946 11.16 26.206 12.533 13.503 1.628 22.387-1.783 33.672-9.398 5.404-3.769 8.899-6.914 12.389-11.624-1.581-13.717.56-22.907 7.929-34.604 7.008-10.845 13.622-16.309 25.535-21.012l1.647 2.82c-4.131 8.729-5.332 14.397-5.522 24.096-.214 11.625 1.063 18.975 7.137 28.976 2.929 4.788 5.131 7.18 9.262 11.048 7.977 7.483 14.04 10.754 24.685 13.582l.736 2.423c-3.053 3.348-5.189 4.871-9.05 7.175-12.33 6.791-22.79 5.433-36.174.966-7.716-2.562-15.773-8.26-18.256-10.331-4.895 3.536-5.84 4.333-9.838 6.537-8.594 4.783-14.116 6.499-23.651 8.624-7.32 1.721-11.507 2.093-18.929 2.486-9.97.504-15.849.606-25.606-1.533-9.614-2.119-14.883-4.63-23.674-9.186-10.168-5.353-16.311-9.862-24.304-16.876-10.98-9.702-31.373-22.088-31.373-22.088l-12.656-2.761.606-2.134c4.479-3.627 6.263-7.822 5.932-13.613-.545-5.238-2.482-8.735-6.879-11.651l.629-2.798c4.797-2.835 7.064-7.103 6.728-12.62-.356-6.043-3.613-10.379-9.197-12.358l1.192-2.774c5.268-2.266 8.261-6.254 8.584-12.088.261-4.505.261-9.787-3.993-10.788l-7.421-1.668c-.109-.601-.441-.988 0-1.624.094-.163 3.559-1.431 5.484-2.861 2.205-1.678 3.329-2.836 4.662-5.265 2.215-4.195 3.54-8.192.945-12.315-1.733-2.773-3.625-4.837-6.863-4.768l-9.468.16.606-2.132c1.676-.789 1.994-1.091 4.285-2.504 7.088-4.36 12.615-8.277 12.893-16.367.271-8.247-4.264-12.68-11.977-17.263l51.756-.052 22.23 19.364c7.131-3.886 11.469-5.456 19.841-7.687 9.745-2.519 15.505-2.729 25.666-2.863 10.583-.037 16.836.564 26.968 3.404 9.377 2.594 14.5 5.657 22.663 10.824 9.904 6.252 16.422 10.64 22.282 20.767 2.824 4.628 3.727 6.491 5.559 19.452-.702-.137.053 1.306-.418 1.73-.541.405-1.196.475-1.818.165" class="C"/><path d="M279.949 313.065c-4.572 3.705-7.373 5.629-12.601 8.495-8.218 4.462-13.379 6.46-22.424 8.484-7.003 1.62-11.001 1.839-18.133 2.074-9.306.16-14.71.06-23.816-1.954-9-2.073-14.006-4.246-22.061-8.642-9.506-5.064-14.71-8.696-22.181-16.314-8.658-8.729-12.779-14.855-17.665-26.01-4.127-9.557-5.643-15.484-6.841-25.737-1.197-10.954-.796-17.418 1.198-28.125 1.807-9.609 3.048-15.251 7.73-23.975 3.521-6.846 6.41-10.326 11.45-16.179 8.718-10.033 14.852-15.05 26.434-21.555 7.651-4.121 12.205-6.252 20.534-8.447 9.122-2.363 14.492-2.565 23.965-2.633 9.842-.102 15.749-.102 25.26 2.633 8.707 2.344 13.497 4.616 21.098 9.484 9.184 5.798 15.195 9.338 20.787 18.748 2.727 4.675 3.912 8.03 5.109 12.83a.69.69 0 0 0 .147.152c-6.129-3.816-12.515-3.679-18.441.285-4.534 3.02-6.461 6.422-7.326 11.777-.892 5.141 0 8.726 2.972 12.929-7.354 5.621-11.841 5.951-19.961 5.621-6.651-.304-9.638-4.148-16.251-5.069-9.749-1.355-16.771-1.115-25.094 2.708-8.342 3.861-18.469 8.619-25.535 18.793-8.773 12.613-10.9 23.599-7.641 38.626 2.305 10.955 5.916 17.388 13.904 25.248 9.067 8.849 16.778 12.441 29.31 14.112 17.444 2.337 31.094-3.927 43.011-13.619 5.75-4.832 5.532-4.832 10.464-10.403-1.195-11.382-1.656-19.529 3.729-29.996 4.282-8.217 8.403-12.566 16.385-17.282-2.246 8.356-2.583 13.499-1.842 22.102.92 9.838 2.113 15.7 7.032 24.253 2.35 3.857 3.736 6.223 6.937 9.418 7.387 7.431 11.808 10.5 20.915 15.663l3.469 1.095c-2.923 2.348-5.596 4.234-8.171 4.754-10.563 2.363-17.22 1.544-26.987-2.515-9.53-3.975-14.401-7.525-16.243-9.322l-2.626-2.507M173.126 160.463l-18.6-17.23-32.554.057c2.385 4.096 3.112 6.994 3.081 11.731 0 5.332-1.213 8.607-4.352 12.941l41.906-.008 10.519-7.491zm-18.775 15.149l-3.732-2.761-28.381.048c1.935 4.308 2.446 7.124 2.173 11.724-.167 4.228-.704 6.687-2.683 10.526l17.494-.067c2.742-4.538 4.461-6.964 7.722-11.106 2.671-3.419 4.257-5.211 7.407-8.364m-19.4 26.281l-2.204-1.228h-12.565c2.222 5.359 2.92 8.961 2.787 14.787-.142 4.693-.731 7.406-2.528 11.712h7.791c.922-5.312 1.534-8.28 3.003-13.546 1.266-4.641 2.13-7.219 3.716-11.725m-7.308 29.944h-7.751c1.27 4.206 1.741 6.929 1.547 11.45-.277 5.034-.861 8.026-3.003 12.62l9.207-.064c-.472-4.611-.552-7.255-.61-12.01-.069-4.7.138-7.291.61-11.996m.589 28.68h-7.994c1.079 3.457 1.49 5.629 1.537 9.285.197 4.361-.142 6.898-1.484 11.053h14.126c-1.567-4.024-2.467-6.303-3.578-10.469-1.223-3.813-1.74-5.966-2.607-9.869m11.524 31.096l-3.201-6.449h-5.716l7.634 6.789 1.283-.34z" fill="#fff"/></g><g class="C"><use xlink:href="#K"/><use xlink:href="#K"/><g class="B"><use xlink:href="#L"/><use xlink:href="#L"/><use xlink:href="#M"/><use xlink:href="#M"/></g></g><path d="M207.353 199.405h-36.106c1.217 2.524 1.7 4.094 2.218 6.825.531 2.702.661 4.255.661 7.061l32.289-7.763.938-6.123zm-30.101 31.169l29.498-14.556-.92-5.533-30.19 7.499c.753 2.201.955 3.504 1.218 5.803a32.89 32.89 0 0 1 .394 6.787" fill="#fff" class="B"/><path d="M160.999 438.188l35.75-50.818c7.284 2.542 24.466 3.325 24.466 3.325l-35.844 53.085c-6.189-.294-24.372-5.592-24.372-5.592" fill="#00a886" class="B"/><path d="M186.03 443.153l35.517-53.714c7.256 2.56 25.036-.596 25.036-.596l-37.361 56.784c-4.203-.251-4.728-.107-23.192-2.474" fill="#fff" class="B"/><path d="M176.263 143.001l-10.365-23.311 13.101-5.809 1.795 3.866-9.26 4.156 2.42 5.512 7.997-3.558 1.727 3.968-7.937 3.56 4.439 9.873-3.917 1.743zm15.421-6.241l-7.055-24.479 4.033-1.15 7.135 24.46-4.113 1.169zm10.615-24.156l1.172 7.165 2.267-.354c1.649-.274 2.61-.52 3.166-.869.468-.297.843-.745 1.196-1.397.264-.621.254-1.316.162-2.145-.177-.808-.417-1.491-.831-2.031-.493-.478-1.028-.812-1.564-.933-.598-.09-1.733-.026-3.503.25l-2.065.314zm-.781 21.577l-4.026-25.144 6.73-1.074c2.515-.408 4.103-.569 4.919-.447 1.319.215 2.411.896 3.427 2.013 1.016 1.209 1.712 2.765 2.029 4.758.277 1.83.179 3.371-.268 4.739-.586 1.361-1.302 2.33-2.24 2.998-1.002.623-2.769 1.214-5.218 1.594l-2.727.406 1.537 9.47-4.163.687zm16.668-10.724l4.128-.23c.196 3.282 1.706 4.989 4.329 5.099 1.211.055 2.228-.189 3.059-.832.716-.571 1.126-1.439 1.168-2.376.049-.635-.076-1.101-.27-1.571-.281-.387-.639-.716-1.151-.992-.408-.307-1.784-.842-3.619-1.511s-3.162-1.345-3.913-2.052c-.809-.646-1.497-1.489-1.833-2.564-.435-1.089-.578-2.222-.596-3.381.1-1.379.418-2.577 1.079-3.707a6.88 6.88 0 0 1 2.746-2.427c1.195-.432 2.511-.66 4.18-.588 2.49.112 4.359.856 5.646 2.291 1.369 1.415 1.982 3.336 1.952 5.848l-4.185-.041c-.235-1.297-.578-2.28-1.129-2.868-.619-.641-1.492-.913-2.525-1.01-1.14-.013-2.081.147-2.724.642-.62.41-.929.954-1.054 1.698.01.696.225 1.252.831 1.806.541.506 1.675 1.085 3.686 1.782 2.168.693 3.685 1.41 4.524 2.157.874.72 1.612 1.614 2.029 2.718.441 1.116.62 2.439.539 3.965-.11 2.177-.884 4.012-2.318 5.444-1.463 1.426-3.551 1.997-6.559 1.929-5.086-.283-7.71-3.378-8.02-9.229m34.173 2.593l-.162-9.864-5.274 8.263 5.436 1.601zm4.696 11.808l-4.352-1.264-.161-6.081-8.026-2.278-3.32 5.083-4.212-1.191 14.81-22.298 4.365 1.278.896 26.751zm5.44-8.86l3.897 1.457c-1.065 3.141-.516 5.241 1.759 6.462 1.116.613 2.227.82 3.168.579a3.05 3.05 0 0 0 2.079-1.746c.283-.459.469-.969.38-1.439-.008-.482-.258-.963-.546-1.452-.392-.485-1.286-1.407-2.712-2.936-1.399-1.333-2.287-2.449-2.72-3.399-.41-.991-.631-1.991-.65-3.194.1-1.128.48-2.235 1.01-3.239.631-1.234 1.431-2.189 2.555-2.916 1.115-.653 2.36-1.03 3.558-.984 1.288.016 2.572.431 4.032 1.169 2.162 1.2 3.511 2.652 4.095 4.462.602 1.862.364 3.858-.643 6.073l-3.962-1.766c.562-1.31.617-2.315.426-3.066-.49-.791-1.062-1.462-1.982-1.947-1.078-.597-1.957-.731-2.688-.655-.696.12-1.296.558-1.637 1.141-.247.652-.323 1.255-.097 1.996.277.621 1.171 1.719 2.63 3.145 1.569 1.527 2.653 2.817 3.194 3.897.492 1.005.738 2.134.678 3.369-.054 1.097-.513 2.385-1.294 3.716-.956 1.976-2.462 3.305-4.379 4.001-1.879.622-4.039.356-6.687-1.016-4.499-2.42-5.599-6.342-3.464-11.712" class="C B"/><path d="M208.085 446.887l36.357-57.551c12.459-.703 27.767-5.628 27.767-5.628l-38.403 64.605c-11.935.709-25.721-1.426-25.721-1.426" fill="#ef3d33" class="B"/><path d="M133.622 413.235l2.272-5.02 9.795 4.272 2.913-6.638-8.658-3.861 2.215-4.995 8.653 3.691 5.46-12.507 4.071 1.703-12.817 29.396-13.904-6.041zm-18.443-10.114l2.725-4.832 9.732 5.541 3.586-6.397-8.983-5.035 2.656-4.796 9.121 5.069 3.939-7.153-10.056-5.774 2.585-4.728 14.128 7.848-15.809 27.935-13.624-7.678zm6.274-27.831l-2.898-2.04c-1.655-1.233-3.582-1.303-6.256.769-1.396.997-3.193 2.883-4.641 5.06-1.61 2.111-2.877 4.492-3.214 6.399-.601 2.607.072 3.599 1.459 4.631l3.144 2.289 12.406-17.108zm-11.922 24.138l-8.193-5.864c-1.887-1.316-3.145-4.227-1.22-10.059.401-1.368 1.479-3.69 3.49-6.351 3.178-4.558 6.369-7.161 8.515-8.434 3.169-1.93 6.432-2.23 8.203-.897l7.9 5.696-18.695 25.909zm-30.915-25.125l3.718-4.078 8.205 7.62 4.914-5.457-7.517-6.999 3.654-3.993 7.659 6.97 5.531-6.139-8.594-7.816 3.711-4.178 11.863 10.961-21.689 23.727-11.455-10.618zm2.726-17.505l-4.071-4.587c-.593-.767-3.052-1.142-5.319 1.15-1.69 1.46-2.217 2.906-.879 4.406l3.871 4.555 6.398-5.524zm-7.606 12.456l-7.864-9.051c-1.324-1.75-1.588-4.373.658-7.101.819-1.124 2.213-2.953 4.684-4.426 2.522-1.365 3.862-1.306 5.707-1.043.162-1.133-.183-2.689 1.873-4.657.867-1.039 4.06-3.903 5.192-4.884 1.427-1.202 1.47-1.715 1.47-2.381l.942-.759 3.12 3.555c-.518.949-1.081 1.657-1.863 2.403-1.115 1.118-3.106 2.772-4.932 4.237-1.534 1.434-1.662 2.99-.662 4.063l3.352 3.991 9.619-8.257 2.977 3.295-24.273 21.015zm-2.187-34.867l-3.015-4.635-8.781 9.274 11.796-4.639zm2.916-17.15l2.457 3.764-4.452 4.867 4.38 6.59 6.299-2.361 2.376 3.764-30.84 11.641-2.856-4.259 22.636-24.006zm-36.166 0l4.798-2.591 23.844.023-5.13-9.747 4.955-2.582 7.454 14.366-4.871 2.628-23.79-.065 5.056 9.692-4.858 2.599-7.458-14.323zm26.178-20.448l1.736 4.128-29.39 12.788-1.717-4.148 29.371-12.768zm-12.191-13.055c-2.25-.794-5.79-.297-9.189.764-3.188 1.089-6.275 2.975-7.723 4.895-1.002 1.563-1.137 3.105-.66 4.427.391 1.344 1.455 2.569 3.242 3.081 2.427.757 5.827.317 9.148-.786 3.333-1.11 6.363-2.955 7.668-4.923 1.125-1.557 1.303-3.127.879-4.393-.487-1.337-1.551-2.526-3.365-3.065m2.666-4.36c3.187.866 5.19 2.982 6.137 5.518a8.79 8.79 0 0 1-1.46 8.098c-2.352 2.975-6.552 5.606-11.122 7.168-4.617 1.518-9.596 2.03-13.278 1.124-3.108-.866-5.101-2.998-6.054-5.517-.859-2.64-.524-5.608 1.544-8.172 2.35-2.893 6.502-5.63 11.134-7.111 4.589-1.605 9.503-1.97 13.099-1.108m-30.959-4.06l19.79-13.028-21.53 4.455-.94-4.328L52.676 256l.944 4.251-20.169 13.064 21.9-4.528.862 4.39-31.389 6.391-.831-4.254zm-5.011-35.199l5.47-.507 1.056 11.122 7.191-.613-.966-10.31 5.488-.496 1.026 10.279 8.249-.759-1.066-11.695 5.458-.434 1.489 16.041-31.978 2.88-1.417-15.508zm32.191-22.92l-.221 4.43-31.97-1.632.196-4.388 31.995 1.59zM21.18 195.322l5.42.639-.677 6.248 26.454 3.04-.549 4.451-26.32-3.045-.85 6.447-5.389-.567 1.911-17.213zm21.337-4.007l1.185-5.394-12.867.282 11.682 5.112zm14.323-9.877l-.943 4.483-6.585.102-1.674 7.831 5.983 2.808-.945 4.425-29.822-13.965 1.066-4.985 32.92-.699zm-28.453-16.025l25.316 8.214 3.186-9.852 5.197 1.725-4.579 14.058-30.449-9.975 1.329-4.17zm36.09-5.371l-1.713 4.163-29.661-12.031 1.612-4.101 29.762 11.969zm-7.108-13.345l2.448-5.03-12.381-2.925 9.933 7.955zm16.367-5.998l-2.069 4.069-6.459-1.541-3.532 7.122 5.09 4.196-1.95 4.071-25.382-21.004 2.206-4.599 32.096 7.686zM50.11 117.96l23.22 4.767-18.434-12.029 2.381-3.764 26.988 17.573-2.398 3.669-23.498-4.927 18.714 12.228-2.403 3.72-26.909-17.473 2.339-3.764zm30.691-8.263l3.532-4.198-11.309-5.826 7.777 10.024zm17.233-2.002l-2.854 3.47-5.912-3.023-5.063 6.14 3.86 5.305-2.879 3.462-19.781-26.337 3.293-3.941 29.336 14.924zm2.76-25.645l3.855-3.173c1.071-.841.592-2.645.131-3.561-.391-.984-1.463-2.761-2.784-3.61-1.696-1.345-2.747-.844-3.637-.11l-3.699 3.071 6.134 7.383zm-12.988-8.818l7.309-6.123c1.2-.969 3.811-3.068 8.255-.076 2.533 1.738 5.135 5.365 6.16 7.529 1.644 4.27 1.042 6.987-1.098 8.357l-4.043 3.355 7.176 8.839-3.395 2.86-20.364-24.741zm30.513-22.58l2.977 4.618-9.173 6.115 3.912 6.113 8.608-5.696 2.992 4.593-8.618 5.669 4.536 6.959 9.865-6.468 2.928 4.601-13.478 8.901-17.542-26.776 12.993-8.629zm20.426.124c-1.13-2.354-3.518-3.829-6.177-2.488-1.93.966-2.955 2.628-1.736 5.096.727 2.01 1.465 2.125 2.586 2.197.818.499 4.795-.527 5.733-.714 1.125-.219 3.801-.716 6.006.527 3.91 2.259 6.363 9.607 5.118 13.142-.8 2.386-2.813 3.936-4.926 5.054-.961.535-3.592 1.199-5.745.435-2.653-.958-4.98-3.355-6.509-5.946l3.929-1.999c.38.799 1.137 1.852 2.271 2.526 1.508.863 3.27.589 4.518-.18 1.249-.693 2.182-1.952 2.394-2.893.195-1.59-.806-3.936-2.394-4.86-2.35-1.322-6.198.679-9.256.679-2.535 0-5.462-1.408-7.544-6.165-1.968-4.705-1.512-9.208 3.15-11.602 1.059-.492 4.705-2.227 8.456.304 1.933 1.436 3.592 3.937 3.867 4.97l-3.741 1.917zm29.698.078c1.152 3.061 1.258 6.894.463 9.246-.582 1.869-2.379 4.096-4.791 5.212-4.491 1.926-9.173-1.199-12.655-7.199-.729-1.266-1.664-3.091-2.393-5.087-.743-2.055-1.463-4.124-1.674-5.906-.992-6.099-.262-11.38 5.016-13.387 1.387-.532 3.601-1.039 6.234.3 4.084 1.834 5.603 5.663 6.275 7.161l-4.005 1.525c-.719-1.62-3.298-5.524-7.181-3.562-1.802.936-2.453 3.537-2.127 6.322.128 1.176.536 3.216 1.276 5.395.725 2.204 1.795 4.436 3.037 6.078 1.424 1.965 2.955 2.885 4.207 3.222.615.125 1.127.096 1.797-.154.534-.183 1.051-.437 1.607-.979 2.417-2.281 1.311-5.359.99-6.734l3.924-1.453zm9.205-3.505l5.453-1.258-5.86-11.43.407 12.688zm15.169 8.557l-4.448 1.145-2.923-5.935-7.798 1.962.066 6.564-4.399 1.136-.347-32.964 4.938-1.28 14.911 29.372zm24.058-24.944c-.209-2.588-1.714-4.82-4.862-4.713-2.132.085-3.675 1.258-3.675 3.921.083 2.197.667 2.604 1.543 3.098.603.764 4.715 1.503 5.593 1.623 1.192.319 3.808.876 5.275 2.91 2.85 3.615 2.113 11.35-.412 14.111-1.729 1.809-4.255 2.436-6.496 2.671-1.23.065-3.899-.295-5.584-1.933-1.97-1.927-3.105-5.057-3.577-8.06l4.325-.294c.116.889.353 2.237 1.199 3.252 1.073 1.431 2.687 1.773 4.212 1.67 1.529-.165 2.744-.93 3.333-1.735.788-1.392.788-3.898-.281-5.421-1.523-2.097-5.792-1.807-8.729-3.073-2.392-1.016-4.451-3.417-4.451-8.596.055-5.122 2.201-9.051 7.525-9.423 1.078-.055 5.11-.197 7.569 3.642 1.135 2.097 1.766 5.025 1.61 6.115l-4.117.235zm13.737 5.202l4.78.232c1.516.081 2.266-1.57 2.574-2.526.291-1.006.703-3.073.371-4.575-.413-2.077-1.595-2.521-2.736-2.521l-4.733-.198-.256 9.588zm-4.013-15.249l9.592.305c1.605.122 4.842.224 6.195 5.489.665 2.993.262 7.463-.469 9.768-1.453 4.178-3.88 5.788-6.392 5.433l-5.269-.209-.385 11.447-4.488-.205 1.216-32.028zm31.907 28.064c1.656-1.692 2.91-5.02 3.461-8.452.522-3.437.403-7.027-.788-9.126-.831-1.7-2.198-2.466-3.618-2.731-1.34-.232-2.925.17-4.254 1.543-1.639 1.68-2.936 5.007-3.396 8.489-.526 3.427-.413 6.994.737 9.089.93 1.659 2.208 2.459 3.593 2.76 1.335.172 2.94-.199 4.265-1.572m2.582 4.405c-2.189 2.467-4.971 3.258-7.781 2.828-2.659-.421-5.124-2.031-6.49-5.096-1.478-3.325-1.895-8.295-1.178-13.088.735-4.827 2.615-9.435 5.141-12.211 2.194-2.406 4.986-3.272 7.726-2.845 2.673.439 5.075 2.074 6.528 5.069 1.462 3.405 1.909 8.355 1.13 13.152-.746 4.786-2.682 9.378-5.076 12.191m14.487-12.19l5.863 1.695c1.045.264 3.259-.759 3.904-3.899.588-2.221.161-3.722-1.667-4.218l-5.873-1.628-2.227 8.05zm-.479-14.618l11.518 3.296c2.142.771 3.718 2.763 3.39 6.292-.066 1.441-.251 3.732-1.533 6.248-1.339 2.546-2.399 3.285-4.179 4.139.467.876 1.71 2.007 1.05 4.91l-1.734 6.976c-.521 1.737-.198 2.174.067 2.744l-.265 1.133-4.582-1.328c-.091-1.041 0-2.002.108-3.008l1.881-6.238c.531-2.079-.185-3.422-1.662-3.824l-5.137-1.383-3.319 12.144-4.33-1.206 8.727-30.895zm37.143 12.826l-2.052 5.149-5.792-2.366-10.118 24.554-4.059-1.682 10.051-24.547-6.13-2.481 2.079-5.083 16.021 6.456zm-7.322 32.304l-4.051-1.937 14.249-28.84 3.923 1.959-14.121 28.818zm33.507-17.86l-22.567 23.898-3.282-1.917 10.004-31.332 3.866 2.255-8.201 23.246 16.306-18.412 3.874 2.262zm-4.777 21.47l4.597 3.28 5.043-11.717-9.64 8.437zm3.106 17.041l-3.58-2.644 2.516-6.09-6.399-4.745-4.901 4.278-3.699-2.695 25.126-21.315 4.089 2.998-13.152 30.213zm44.579-.602l-4.008 3.679-7.529-8.187-5.455 4.947 7.068 7.581-4.063 3.752-7.008-7.621-6.078 5.656 7.952 8.609-3.997 3.677-10.996-11.804L370.825 80.3l10.507 11.455zm-.29 33.605l2.877 4.713 9.14-8.976-12.017 4.263zm-3.52 17.009l-2.383-3.834 4.701-4.696-4.126-6.806-6.319 2.171-2.383-3.924 31.236-10.461 2.631 4.368-23.357 23.182zm35.227-.637l-4.853 2.456-2.724-5.653-24.035 11.789-1.814-3.987 23.836-11.809-2.926-5.845 4.995-2.474 7.521 15.523zm7.254 18.776l-5.047 2.009-2.256-5.863-24.774 9.366-1.619-4.186 24.775-9.376-2.274-6.088 5.156-1.977 6.039 16.115zM391.459 177.1l-1.35-4.226 30.711-9.298 1.329 4.238-30.69 9.286zm35.942 12.144l-32.884-.093-.944-3.694 29.65-14.213.996 4.313-22.495 10.002 24.623-.696 1.054 4.381zm-30.692 12.633l-.679-4.354 31.707-4.942.737 4.398-31.765 4.898zm33.821 15.318l-5.503.457-.474-6.29-26.508 2.371-.404-4.406 26.447-2.369-.614-6.482 5.527-.524 1.529 17.243zm-20.084 7.793l.118 5.594 12.374-3.133-12.492-2.461zm-11.798 12.824v-4.503l6.447-1.654-.175-7.922-6.405-1.433-.09-4.531 32.205 6.99.039 5.159-32.021 7.894zm31.502 5.595l-5.18-.31c-1.291-.083-3.822-.426-5.355-2.388-.48-.594-.599-1.328-.656-1.997l2.004.132c.185.537.669 1.533 1.477 1.971.783.516 1.708.717 2.32.563l.119-2.307 5.418.337-.147 3.999zm-13.859 28.339c2.535.565 5.176-.41 5.859-3.322.527-2.135-.341-3.983-2.844-4.609-2.236-.559-2.744-.109-3.504.703-.845.323-2.554 4.23-2.953 4.949-.484 1.093-1.824 3.445-4.04 4.403-4.241 1.637-11.576-.859-13.557-4.024-1.395-2.137-1.337-4.72-.94-7.054.206-1.103 1.198-3.565 3.192-4.763 2.406-1.508 5.697-1.862 8.717-1.468l-.826 4.331c-.742-.18-2.194-.272-3.422.225-1.602.667-2.418 2.139-2.608 3.714-.271 1.391.147 2.96.737 3.593 1.134 1.192 3.608 1.819 5.331 1.13 2.463-1.045 3.265-5.13 5.213-7.668 1.582-2.03 4.378-3.455 9.445-2.03 4.88 1.261 8.189 4.423 7.196 9.611-.278 1.093-1.149 5.047-5.478 6.295-2.265.754-5.294.441-6.381.045l.863-4.061zm2.056 28.692l-21.114-6.518c-2.645-.93-6.52-2.661-7.987-6.761a8.92 8.92 0 0 1 .072-4.658c.531-1.465 1.277-2.699 2.283-3.665 3.855-2.598 7.764-2.263 10.779-1.291l21.094 6.619-1.324 4.268-21.153-6.702c-2.017-.56-5.089-1.101-6.219 2.434-1.002 3.364 1.799 4.862 3.807 5.393l21.11 6.683-1.348 4.198zm-16.186 5.769l-2.06 4.605c-.736 1.752-.148 3.127 2.14 4.291 2.508 1.068 3.87.259 4.463-1.088l2.104-4.765-6.647-3.043zm-12.516-5.611l-2.108 4.695c-.564 1.29-1.23 3.058 2.712 4.915 3.189 1.439 4.116 0 4.453-.701l2.474-5.587-7.531-3.322zm26.124 6.806l-3.723 8.043c-3.014 6.758-9.665 4.296-10.81 3.825-1.771-.902-4.137-2.432-5.27-4.624-1.782.562-4.848.562-8.367-1.034-1.542-.638-3.818-2.041-5.265-4.812-1.197-2.158-.408-4.428.128-5.673l4.003-8.861 29.304 13.136zm-30.806 16.647l-2.791 4.713 12.14 3.991-9.349-8.704zm-16.65 4.578l2.283-3.831 6.319 2.019 4.127-6.832-4.701-4.621 2.261-3.877 23.638 23.007-2.686 4.382-31.241-10.247zm-3.708 22.545c-2.589-2.029-4.739-5.257-5.195-7.729-.346-1.866-.062-4.726 1.482-6.99 2.801-3.798 8.455-3.602 14.5-.344 1.249.683 3.07 1.813 4.662 3.072 1.648 1.37 3.337 2.857 4.522 4.228 4.006 4.728 6.137 9.561 2.667 14.056-.936 1.163-2.526 2.701-5.541 2.961-4.45.514-7.701-1.89-9.108-2.913l2.665-3.343c1.482 1.036 5.731 3.056 7.914-.664 1.092-1.723.418-4.363-1.31-6.524-.727-.882-2.203-2.437-3.922-3.96-1.822-1.358-3.873-2.858-5.744-3.566-2.271-.888-3.946-.994-5.185-.625-.675.195-1.212.625-1.62 1.019-.261.467-.66 1.06-.787 1.814-.912 3.12 1.59 5.204 2.516 6.146l-2.516 3.362zm-11.182 8.16l.835 4.216-4.106-.692c.873 1.898 2.345 3.934 4.049 5.7 2.403 2.461 5.551 4.432 7.717 4.865 1.94.256 3.36-.304 4.419-1.278 1.007-.953 1.591-2.39 1.344-4.32-.418-2.433-2.341-5.35-4.671-7.889-2.526-2.421-5.409-4.431-7.926-4.728-1.88-.437-3.257.129-4.187 1.135-.675.66-1.231 1.496-1.354 2.399l3.88.592zm-12.464 1.862l-.874-4.169 4.192.812c.073-2.267 1.087-4.104 2.527-5.584 1.942-1.875 4.686-2.814 7.943-2.105 3.59.725 7.849 3.358 11.197 6.781 3.451 3.497 5.996 7.761 6.703 11.394.684 3.302-.251 5.981-2.122 7.922-2.06 1.972-4.8 2.873-8.057 2.165-3.729-.797-7.858-3.394-11.31-6.865-2.816-2.989-5.194-6.452-6.196-9.685l-4.003-.666zm2.987 36.568L330.5 380.144c-1.648-2.241-3.861-5.893-2.522-10.152.461-1.477 1.468-2.813 2.593-3.702 1.282-.924 2.659-1.5 3.979-1.769 4.681.232 7.772 2.711 9.676 5.231l13.375 17.617-3.504 2.74-13.455-17.721c-1.411-1.505-3.528-3.833-6.491-1.63-2.692 2.185-1.382 5.033-.109 6.55l13.441 17.732-3.537 2.722zm-19.557 11.956l-2.74-4.73 9.592-5.697-3.733-6.33-8.812 5.327-2.839-4.848 8.93-5.246-4.272-7.122-9.99 5.966-2.939-4.758 13.991-8.127 16.334 27.57-13.522 7.995zm-20.255 9.451l-2.198-5.02 10.208-4.496-3.096-6.684-9.482 4.151-2.178-4.997 9.475-4.231-3.384-7.522-10.675 4.868-2.264-5.129 14.714-6.604 13.043 29.271-14.163 6.393z" fill="#fff"/><g fill="#eeb210" class="B"><path d="M66.089 228.525c-.066-43.133 16.452-83.528 46.352-113.706 29.97-30.008 70.22-46.593 113.352-46.682 42.978-.058 82.809 16.28 112.161 46.195 29.095 29.774 45.219 70.026 45.358 113.337 0 43.212-15.968 83.311-45.068 112.748-29.196 29.576-69.088 45.863-112.119 45.955-89.569.137-159.772-69.135-160.036-157.847m42.958-116.993c-30.83 30.974-47.761 72.524-47.699 116.993.147 91.375 72.542 162.774 164.777 162.637 44.308-.099 85.374-16.859 115.495-47.347 30.016-30.348 46.563-71.638 46.501-116.146-.075-44.566-16.713-86.044-46.763-116.674C311.119 80.16 270.1 63.314 225.793 63.337c-44.416.067-85.849 17.123-116.746 48.195"/><use xlink:href="#C"/></g><defs ><path id="C" d="M7.601 226.615c-.325-120.583 97.64-218.73 218.11-218.959 58.434-.068 113.392 22.557 154.751 63.708 41.346 41.283 64.211 96.16 64.211 154.557.176 120.527-97.66 218.67-218.16 218.902-120.61.228-218.834-97.715-218.912-218.208m-5.907 0c.171 123.762 101.09 224.197 224.819 224.027 123.709-.165 224.263-101.063 224.001-224.721-.075-59.977-23.583-116.259-65.938-158.603-42.407-42.357-98.893-65.596-158.865-65.459C101.996 2.016 1.554 102.805 1.694 226.615"/><path id="D" d="M371.015 291.659c-1.34 2.9-5.532 11.825-6.549 13.263-3.398-1.082-5.322-1.401-9.249-1.71-29.58-2.254-46.169 28.178-77.264 23.246-40.709-6.42-29.77-24.172-63.537-25.176-29.711.497-30.786 22.575-66.209 25.38-27.697 2.267-42.627-22.876-62.286-20.583-2.182-3.06-5.591-10.059-7.245-15.123.911-.13-.734.174.118 0 29.711-2.294 42.908 23.518 72.148 21.491 26.624-1.67 30.361-24.919 63.474-25.945 31.63.657 36.915 23.834 63.476 25.801 31.033 2.171 47.811-25.271 77.516-23.01 6.068.397 15.607 2.366 15.607 2.366"/><path id="E" d="M72.805 274.948c2.929-.867 4.466-1.007 6.856-1.273 29.642-2.257 42.834 23.475 72.143 21.489 26.705-1.699 29.386-24.966 63.476-25.975 34.689.887 36.478 22.525 62.521 24.532 31.655 2.464 48.306-24.105 77.934-22.875 4.539.165 10.716 1.828 20.606 5.669 1.794-4.642 3.381-13.437 3.381-13.437-13.997-5.508-20.578-6.517-25.464-6.687-27.619-1.088-44.745 25.835-75.431 23.849-26.779-1.808-28.587-24.17-63.547-25.843-35.565 1.603-36.832 24.282-63.476 25.989-29.309 1.97-42.501-23.825-72.143-21.528-3.31.307-6.135.636-10.313 2.033 0 0 2.201 10.759 3.457 14.057"/><path id="F" d="M66.685 242.671c-.717-8.354-.717-14.853-.717-14.853 4.171-1.457 10.32-1.976 13.62-2.221 29.606-2.306 42.854 23.434 72.146 21.47 26.634-1.752 25.834-24.844 63.742-26.075 36.194.437 36.655 24.077 63.262 25.872 30.06 2.07 44.213-23.905 73.884-22.475 9.182.459 17.306.934 30.691 6.615 0 0-.138 8.671-.92 14.66-15.176-5.856-21.723-5.549-29.69-6.191-29.666-2.158-44.333 22.703-74.34 20.982-25.971-1.527-29.109-22.404-62.806-22.55-34.319 1.239-34.435 20.331-63.751 23.981-29.189 3.607-42.557-23.801-72.143-21.482-3.31.305-8.744.772-12.977 2.267"/><path id="G" d="M67.207 210.049c4.132-1.4 9.081-2.276 12.381-2.349 29.203-.653 42.777 24.055 72.146 22.076 26.568-1.72 31.762-26.032 63.742-26.094 34.845 1.4 36.764 23.363 63.224 25.325 30.35 2.279 45.401-21.666 75.17-21.766 8.342 0 15.193.424 28.807 5.367-.284-6.029-1.633-13.093-2.165-15.741-15.289-4.982-16.761-4.715-23.716-4.982-29.694-1.059-46.469 25.48-78.096 22.917-26.65-2.194-25.601-24.779-63.537-25.813-36.158 1.922-36.861 24.263-63.485 26.01-29.312 1.969-42.571-23.851-72.137-21.47-3.252.255-6.053.927-10.246 2.347-1.338 5.275-2.087 14.173-2.087 14.173"/><path id="H" d="M342.336 336.155c-28.896 8.789-27.424 18.257-54.798 19.812-37.342 2.161-44.306-22.904-72.197-23.508-28.58.83-35.099 26.169-70.552 24.269-10.553-.567-12.034-2.785-19.158-4.127-13.333-10.665-26.314-25.38-25.443-25.38 24.524 3.128 22.427 18.282 51.742 16.385 26.579-1.792 31.241-26.844 63.411-26.076 28.84-.293 36.707 24.498 64.555 25.879 30.567 1.535 46.211-24.58 75.188-23.031 0 0-7.402 10.64-12.748 15.777"/><path id="I" d="M154.862 370.622c28.633-1.902 27.641-23.252 60.01-23.754 37.31 1.537 30.98 17.603 69.074 22.798 6.271.767 13.114-.27 16.97-1.001-10.527 4.854-22.088 10.414-28.157 11.15-30.904-4.306-29.921-18.022-57.802-18.994-24.324 1.912-22.993 11.126-40.972 17.589-7.807-2.457-20.775-7.498-19.123-7.788"/><path id="J" d="M79.661 163.184c29.642-2.374 42.646 17.939 71.944 19.714 26.695 1.633 22.64-24.207 63.556-26.009 39.75 1.168 36.797 24.234 63.462 25.842 29.437 1.755 42.218-21.649 72.07-22.345 5.787-.102 11.581.24 19.709 2.289 0 0 3.129 6.575 5.664 16.324-11.524-3.796-18.075-3.896-25.373-3.796-29.314.355-42.633 24.087-72.07 22.348-26.665-1.59-25.578-24.27-63.462-25.845-36.244 1.702-36.861 24.255-63.485 26.04-29.369 1.971-42.63-23.826-72.193-21.542-1.931.197-3.03.197-5.263.796 1.322-4.358 5.441-13.816 5.441-13.816"/><path id="K" d="M237.255 187.039c0-4.311 3.95-7.851 8.746-7.851 4.9-.037 8.845 3.463 8.845 7.851 0 4.331-3.869 7.84-8.845 7.84-4.715 0-8.746-3.437-8.746-7.84"/><path id="L" d="M266.887 194.879l-4.4-2.104c-2.238 3.904-4.113 5.995-7.57 8.933-4.463 3.558-7.454 5.157-12.994 6.498l2.217 3.072c5.636-.524 9.163-1.816 13.85-5.254 4.386-3.327 6.571-6.05 8.897-11.145"/><path id="M" d="M208.554 194.443l-47.085.072-.348 2.444c4.469 2.446 6.677 5.314 8.132 10.132 1.21 4.867.793 8.362-1.512 12.685 1.716 1.879 2.592 3.198 3.505 5.561 2.14 5.04 2.1 8.927-.13 13.894l2.063.938 34.897-20.435 1.143 2.472 7.663-2.148c-2.668-5.669-3.437-9.488-3.044-15.763.507-8.295 2.911-13.494 8.561-19.447l-5.194-2.769c-2.12 2.377-3.246 3.772-5.259 6.163l-3.703 4.928.311 1.273z"/></defs></svg>