<?xml version="1.0" encoding="UTF-8" standalone="no"?>
<!DOCTYPE svg PUBLIC "-//W3C//DTD SVG 1.1//EN" "http://www.w3.org/Graphics/SVG/1.1/DTD/svg11.dtd">
<!-- Created with Vectornator (http://vectornator.io/) -->
<svg height="100%" stroke-miterlimit="10" style="fill-rule:nonzero;clip-rule:evenodd;stroke-linecap:round;stroke-linejoin:round;" version="1.1" viewBox="0 0 1024 1024" width="100%" xml:space="preserve" xmlns="http://www.w3.org/2000/svg" xmlns:xlink="http://www.w3.org/1999/xlink">
<defs/>
<g id="Layer-1">
<g opacity="1">
<path d="M36.5306 670.628L310.649 670.628C318.655 670.628 323.658 661.96 319.654 655.025L89.9749 257.377C85.9654 250.435 75.9682 250.467 71.9469 257.403C28.5392 332.269 3.6838 419.231 3.6838 512.001C3.6838 564.695 11.7082 615.512 26.5909 663.307C27.9456 667.658 31.9721 670.628 36.5306 670.628Z" fill="#000000" fill-rule="nonzero" opacity="1" stroke="none"/>
<path d="M512.179 3.68488C512.119 3.68488 512.059 3.68488 511.999 3.68488C364.387 3.68488 231.476 66.6105 138.614 167.093C135.516 170.443 134.955 175.419 137.237 179.372L274.167 416.541C278.171 423.478 288.183 423.473 292.183 416.534L521.127 19.2764C525.105 12.369 520.153 3.68701 512.179 3.68488Z" fill="#000000" fill-rule="nonzero" opacity="1" stroke="none"/>
<path d="M987.579 353.729L713.558 353.729C705.552 353.729 700.548 362.399 704.553 369.331L934.057 766.563C938.069 773.506 948.067 773.472 952.086 766.536C995.471 691.684 1020.32 604.743 1020.32 512.001C1020.32 459.439 1012.33 408.746 997.522 361.057C996.171 356.701 992.141 353.729 987.579 353.729Z" fill="#000000" fill-rule="nonzero" opacity="1" stroke="none"/>
<path d="M952.533 258.239C882.609 137.112 764.164 47.5189 623.757 16.0183C619.304 15.0196 614.717 17.0127 612.435 20.9636L475.403 258.311C471.4 265.245 476.403 273.912 484.412 273.91L943.503 273.799C951.484 273.797 956.524 265.153 952.533 258.239Z" fill="#000000" fill-rule="nonzero" opacity="1" stroke="none"/>
<path d="M538.999 750.104L80.6875 750.545C72.7047 750.552 67.672 759.201 71.6688 766.11C141.533 886.914 259.678 976.29 399.724 1007.86C404.178 1008.87 408.772 1006.88 411.055 1002.92L548.013 765.702C552.018 758.766 547.008 750.096 538.999 750.104Z" fill="#000000" fill-rule="nonzero" opacity="1" stroke="none"/>
<path d="M749.857 607.377C745.856 600.445 735.851 600.445 731.847 607.375L502.328 1004.71C498.338 1011.62 503.289 1020.3 511.267 1020.32C511.511 1020.32 511.756 1020.32 512 1020.32C659.636 1020.32 792.565 957.37 885.43 856.859C888.527 853.507 889.088 848.533 886.808 844.581L749.857 607.377Z" fill="#000000" fill-rule="nonzero" opacity="1" stroke="none"/>
</g>
</g>
<g id="Layer-2">
<g opacity="1">
<path d="M476.074 555.141C476.074 568.196 472.712 579.927 465.988 590.332C459.264 600.736 449.423 608.884 436.466 614.773C423.509 620.663 408.147 623.608 390.38 623.608C369.079 623.608 351.509 619.583 337.668 611.534C327.852 605.743 319.877 598.013 313.742 588.344C307.607 578.675 304.539 569.276 304.539 560.147C304.539 554.847 306.38 550.307 310.061 546.528C313.742 542.749 318.429 540.859 324.122 540.859C328.736 540.859 332.638 542.331 335.828 545.276C339.018 548.221 341.742 552.589 344 558.38C346.748 565.252 349.717 570.994 352.908 575.608C356.098 580.221 360.589 584.025 366.38 587.019C372.171 590.012 379.779 591.509 389.202 591.509C402.159 591.509 412.687 588.491 420.785 582.454C428.883 576.417 432.932 568.884 432.932 559.853C432.932 552.687 430.748 546.871 426.38 542.405C422.012 537.939 416.368 534.528 409.448 532.172C402.527 529.816 393.276 527.313 381.693 524.663C366.184 521.031 353.202 516.785 342.748 511.926C332.294 507.067 323.999 500.442 317.864 492.049C311.73 483.656 308.662 473.227 308.662 460.761C308.662 448.883 311.901 438.331 318.38 429.104C324.858 419.877 334.233 412.785 346.503 407.828C358.773 402.871 373.202 400.392 389.791 400.392C403.043 400.392 414.503 402.037 424.172 405.325C433.84 408.613 441.865 412.981 448.245 418.429C454.626 423.877 459.288 429.595 462.233 435.583C465.178 441.57 466.65 447.411 466.65 453.104C466.65 458.307 464.81 462.994 461.129 467.166C457.448 471.337 452.859 473.423 447.362 473.423C442.356 473.423 438.552 472.172 435.951 469.669C433.349 467.166 430.527 463.067 427.484 457.374C423.558 449.227 418.846 442.871 413.349 438.307C407.852 433.742 399.018 431.46 386.846 431.46C375.558 431.46 366.454 433.938 359.533 438.896C352.613 443.853 349.153 449.816 349.153 456.785C349.153 461.104 350.331 464.834 352.687 467.975C355.043 471.116 358.282 473.816 362.404 476.074C366.527 478.331 370.699 480.098 374.92 481.374C379.141 482.65 386.11 484.515 395.828 486.969C408 489.816 419.018 492.957 428.883 496.393C438.748 499.828 447.141 504 454.061 508.908C460.981 513.816 466.38 520.025 470.258 527.534C474.135 535.043 476.074 544.245 476.074 555.141Z" fill="#000000" fill-rule="nonzero" opacity="1" stroke="none"/>
<path d="M578.062 587.387L543.46 449.865L543.46 598.871C543.46 607.117 541.62 613.301 537.939 617.424C534.258 621.546 529.374 623.608 523.288 623.608C517.399 623.608 512.589 621.571 508.859 617.497C505.129 613.424 503.264 607.215 503.264 598.871L503.264 428.073C503.264 418.65 505.718 412.294 510.626 409.006C515.534 405.717 522.16 404.073 530.503 404.073L544.049 404.073C552.196 404.073 558.111 404.81 561.792 406.282C565.473 407.754 568.196 410.405 569.963 414.233C571.73 418.061 573.743 424.294 576 432.932L607.362 551.166L638.724 432.932C640.982 424.294 642.994 418.061 644.761 414.233C646.528 410.405 649.252 407.754 652.933 406.282C656.614 404.81 662.528 404.073 670.675 404.073L684.221 404.073C692.565 404.073 699.191 405.717 704.099 409.006C709.007 412.294 711.461 418.65 711.461 428.073L711.461 598.871C711.461 607.117 709.62 613.301 705.939 617.424C702.258 621.546 697.326 623.608 691.142 623.608C685.35 623.608 680.589 621.546 676.859 617.424C673.129 613.301 671.264 607.117 671.264 598.871L671.264 449.865L636.663 587.387C634.405 596.319 632.565 602.871 631.141 607.043C629.718 611.215 627.092 615.019 623.264 618.454C619.436 621.89 614.135 623.608 607.362 623.608C602.258 623.608 597.939 622.503 594.405 620.295C590.871 618.086 588.123 615.264 586.16 611.828C584.197 608.393 582.651 604.589 581.522 600.417C580.393 596.246 579.239 591.902 578.062 587.387Z" fill="#000000" fill-rule="nonzero" opacity="1" stroke="none"/>
</g>
</g>
</svg>
